<?xml version="1.0" encoding="utf-8"?>

<!-- Gratefully taken from https://freeiconshop.com/icon/key-icon-flat/ -->

<!-- Generator: Adobe Illustrator 18.0.0, SVG Export Plug-In . SVG Version: 6.00 Build 0)  -->
<!DOCTYPE svg PUBLIC "-//W3C//DTD SVG 1.1//EN" "http://www.w3.org/Graphics/SVG/1.1/DTD/svg11.dtd">
<svg version="1.1" id="Layer_1" xmlns="http://www.w3.org/2000/svg" xmlns:xlink="http://www.w3.org/1999/xlink" x="0px" y="0px"
	 viewBox="0 0 64 64" enable-background="new 0 0 64 64" xml:space="preserve">
<g>
	<g>
		<g>
			<path fill="#3F6282" d="M32,0c17.7,0,32,14.3,32,32S49.7,64,32,64S0,49.7,0,32S14.3,0,32,0z"/>
		</g>
	</g>
	<g>
		<g>
			<path fill="#D5E1EF" d="M49.8,44.6L37.3,32.2l1.7-1.7l-2.8-2.8l-8.5,8.5l2.8,2.8l1.2-1.2L35,41h3v3h3v3h3v3l1,0.8
				c0.1,0.1,0.3,0.2,0.4,0.2l4-0.4c0.3,0,0.6-0.3,0.6-0.6v-5C50,44.8,49.9,44.7,49.8,44.6z"/>
		</g>
	</g>
	<g>
		<g>
			<path fill="#8A9EB5" d="M47.9,46.9L36.1,35c-0.2-0.2-0.2-0.5,0-0.7l0,0c0.2-0.2,0.5-0.2,0.7,0l11.7,11.9c0.2,0.2,0.2,0.5,0,0.7h0
				C48.4,47,48.1,47,47.9,46.9z"/>
		</g>
	</g>
	<g>
		<g>
			<path fill="#9AD852" d="M25,13c-6.6,0-12,5.4-12,12c0,6.6,5.4,12,12,12s12-5.4,12-12C37,18.4,31.6,13,25,13z M23.2,26.7
				c-1.9,0-3.5-1.6-3.5-3.5c0-1.9,1.6-3.5,3.5-3.5s3.5,1.6,3.5,3.5C26.7,25.1,25.1,26.7,23.2,26.7z"/>
		</g>
	</g>
</g>
</svg>
